<?xml version="1.0" encoding="utf-8"?>
<!-- Generator: Adobe Illustrator 27.0.0, SVG Export Plug-In . SVG Version: 6.00 Build 0)  -->
<svg version="1.1" id="Capa_1" xmlns="http://www.w3.org/2000/svg" xmlns:xlink="http://www.w3.org/1999/xlink" x="0px" y="0px"
	 viewBox="0 0 128 128" style="enable-background:new 0 0 128 128;" xml:space="preserve">
<style type="text/css">
	.st0{stroke:#000000;stroke-width:2.9147;stroke-miterlimit:11.6586;}
	.st1{fill:#FFFFFF;}
</style>
<g id="SVGRepo_bgCarrier">
</g>
<g id="SVGRepo_tracerCarrier">
</g>
<rect x="21.5" y="6.5" class="st0" width="86.9" height="113.3"/>
<g id="SVGRepo_iconCarrier">
	<g>
		<path class="st1" d="M100.2,0H27.8c-8.1,0-14.6,6.5-14.6,14.6v98.9c0,8,6.5,14.6,14.6,14.6h72.5c8.1,0,14.6-6.5,14.6-14.6V14.6
			C114.8,6.5,108.3,0,100.2,0z M26.8,49.1c0-3.4,2.8-6.2,6.2-6.2h2.2c-2.3-2.5-3.7-5.9-3.7-9.6c0-7.9,6.4-14.4,14.4-14.4
			c7.9,0,14.4,6.4,14.4,14.4c0,3.7-1.4,7.1-3.7,9.6h2.1c3.4,0,6.2,2.8,6.2,6.2v10.4c0,3.3-2.6,5.9-5.8,6.1H32.6
			c-3.2-0.2-5.8-2.9-5.8-6.1L26.8,49.1L26.8,49.1z M95.3,109.1H32.7c-3.2,0-5.8-2.6-5.8-5.8c0-3.2,2.6-5.8,5.8-5.8h62.7
			c3.2,0,5.8,2.6,5.8,5.8C101.2,106.4,98.6,109.1,95.3,109.1z M95.3,87.2H32.7c-3.2,0-5.8-2.6-5.8-5.8s2.6-5.8,5.8-5.8h62.7
			c3.2,0,5.8,2.6,5.8,5.8S98.6,87.2,95.3,87.2z M95.3,65.3H76.4c-3.2,0-5.8-2.6-5.8-5.8c0-3.2,2.6-5.8,5.8-5.8h18.9
			c3.2,0,5.8,2.6,5.8,5.8C101.2,62.7,98.6,65.3,95.3,65.3z"/>
	</g>
</g>
</svg>
